# xmcd
#
# Track frame offsets:
#	150
#	12636
#	25396
#	45717
#	65044
#	85540
#
# Disc length: 1419 seconds
# Revision: 0
# Processed by: cddbd v1.5.2PL0 Copyright (c) Steve Scherf et al.
# Submitted via: dBpowerAMP V12.0
#
DISCID=49058906
DTITLE=The Long and Short of It - My Forever Book
DYEAR=2013
DGENRE=Country
TTITLE0=My Forever Book
TTITLE1=My Life is so Black and White
TTITLE2=Hallelujah
TTITLE3=I'm Free
TTITLE4=Wagon Wheel
TTITLE5=Mr Norman
EXTD=
EXTT0=
EXTT1=
EXTT2=
EXTT3=
EXTT4=
EXTT5=
PLAYORDER=
